# xmcd
#
# Track frame offsets:
# 150
# 26390
# 49127
# 79053
# 98380
# 116679
# 139332
# 155883
# 176213
# 196005
# 215686
# 230116
# 246309
# 269878
# 292094
# 309946
# 327686
#
# Disc length: 4641 seconds
#
#
# Revision: 0
# Processed by: cddbd v1.5.1PL0 Copyright (c) Steve Scherf et al.
# Submitted via: FreeRIP 2.60 
#
DISCID=09121f11
DTITLE=B B King - Deuces Wild
DYEAR=1997
DGENRE=Blues
TTITLE0=If You Love Me (with Van Morrison)
TTITLE1=The Thrill Is Gone (with Tracey Chapman)
TTITLE2=Rock Me Baby (with Eric Clapton)
TTITLE3=Please Send Me Someone To Love (with Mike Hucknall)
TTITLE4=Baby I Love You (with Ronnie Raitt)
TTITLE5=Ain't Nobody Home (with D'Angelo)
TTITLE6=Pauly's Birthday Boogie (with Jools Holland)
TTITLE7=There Must Be A Better World Somewhere (with Dr John)
TTITLE8=Confessin' The Blues (with Mary Stuart)
TTITLE9=Hummingbird (with Dionne Warwick)
TTITLE10=Bring It Home To Me (with Paul Carrack)
TTITLE11=Paying The Cost To Be The Boss (with the Rolling Stones)
TTITLE12=Let The Good Times Roll (with Zucchero)
TTITLE13=Dangerous Mood (with Joe Cocker)
TTITLE14=Keep It Coming (with Heavy D)
TTITLE15=Cryin'wont Help You Babe (with David Gilmour and Paul Carrack)
TTITLE16=Night Life (with Willie Nelson)
EXTD=YEAR: 1997
EXTT0=
EXTT1=
EXTT2=
EXTT3=
EXTT4=
EXTT5=
EXTT6=
EXTT7=
EXTT8=
EXTT9=
EXTT10=
EXTT11=
EXTT12=
EXTT13=
EXTT14=
EXTT15=
EXTT16=
PLAYORDER=
